<?xml version="1.0" encoding="UTF-8" standalone="no" ?>
<!DOCTYPE svg PUBLIC "-//W3C//DTD SVG 1.1//EN" "http://www.w3.org/Graphics/SVG/1.1/DTD/svg11.dtd">
<svg xmlns="http://www.w3.org/2000/svg" xmlns:xlink="http://www.w3.org/1999/xlink" version="1.1" width="425" height="61" viewBox="0 0 425 61" xml:space="preserve">
<desc>Created with Fabric.js 3.6.3</desc>
<defs>
</defs>
<g transform="matrix(1 0 0 1 212.75 32.87)"  >
<g style=""   >
		<g transform="matrix(1 0 0 1 0 -11.26)"  >
<g style=""   >
		<g transform="matrix(0.1 0 0 0.1 -194.91 2.25)"  >
<path style="stroke: none; stroke-width: 1; stroke-dasharray: none; stroke-linecap: butt; stroke-dashoffset: 0; stroke-linejoin: miter; stroke-miterlimit: 4; fill: rgb(0,34,108); fill-rule: nonzero; opacity: 1;"  transform=" translate(-248.38, -287)" d="M 412 269 c -1 -4 -4 -7 -8 -9 l -14 0 c -4 0 -6 2 -6 6 c 0 11 0 21 -1 29 c 0 9 -1 17 -3 23 c -2 7 -4 12 -8 16 c -3 3 -8 5 -14 5 c -6 0 -11 -4 -15 -12 c -4 -8 -6 -20 -6 -35 l 0 -163 c 0 -12 -3 -21 -10 -26 c -7 -6 -15 -9 -23 -9 c -8 0 -16 3 -22 8 c -7 6 -11 13 -11 23 l 1 170 c -7 13 -15 24 -26 32 c -11 8 -23 12 -38 12 c -9 0 -17 -1 -25 -5 c -7 -3 -13 -8 -18 -15 c -6 -9 -11 -19 -12 -31 c -2 -11 -3 -23 -3 -36 l 0 -95 c -2 1 -3 1 -5 2 c -8 4 -18 6 -28 6 c -9 0 -19 -2 -27 -6 c -2 -1 -4 -2 -6 -3 l 0 289 c 0 12 3 21 10 27 c 7 5 15 8 23 8 c 8 0 16 -3 23 -8 c 7 -5 10 -13 10 -23 l 0 -98 c 10 4 21 7 31 8 c 11 1 21 2 31 2 c 16 0 29 -4 41 -10 c 12 -6 22 -15 31 -26 c 8 12 19 20 34 26 c 14 7 29 10 45 10 c 10 0 19 -3 26 -9 c 7 -6 13 -13 16 -22 c 4 -9 6 -19 7 -30 c 1 -11 1 -21 0 -31 z" stroke-linecap="round" />
</g>
		<g transform="matrix(0.1 0 0 0.1 -207.94 -16.81)"  >
<path style="stroke: none; stroke-width: 1; stroke-dasharray: none; stroke-linecap: butt; stroke-dashoffset: 0; stroke-linejoin: miter; stroke-miterlimit: 4; fill: rgb(255,173,13); fill-rule: nonzero; opacity: 1;"  transform=" translate(-117.5, -94.5)" d="M 117 47 c 7 0 13 1 19 3 c 6 3 11 6 15 11 c 5 4 8 9 10 15 c 3 6 4 12 4 18 c 0 7 -1 13 -4 19 c -2 6 -5 11 -10 15 c -4 5 -9 8 -15 10 c -6 3 -12 4 -19 4 c -6 0 -13 -1 -18 -4 c -6 -2 -11 -5 -15 -10 c -5 -4 -8 -9 -11 -15 c -2 -6 -3 -12 -3 -19 c 0 -6 1 -12 3 -18 c 3 -6 6 -11 11 -15 c 4 -5 9 -8 15 -11 c 5 -2 12 -3 18 -3 z" stroke-linecap="round" />
</g>
		<g transform="matrix(0.1 0 0 0.1 -31.46 -9.85)"  >
<path style="stroke: none; stroke-width: 1; stroke-dasharray: none; stroke-linecap: butt; stroke-dashoffset: 0; stroke-linejoin: miter; stroke-miterlimit: 4; fill: rgb(255,255,255); fill-rule: nonzero; opacity: 1;"  transform=" translate(-1898, -166.5)" d="M 463 225 l 0 -118 l 13 0 l 0 118 l -13 0 z m 126 0 l -12 0 l -52 -79 l 0 0 c 0 9 1 17 1 25 l 0 54 l -10 0 l 0 -94 l 12 0 l 51 78 l 1 0 c 0 -1 -1 -5 -1 -11 c 0 -6 0 -11 0 -14 l 0 -53 l 10 0 l 0 94 z m 89 -25 c 0 8 -3 14 -9 19 c -6 5 -14 7 -24 7 c -11 0 -20 -2 -26 -4 l 0 -11 c 4 2 8 3 13 4 c 4 1 9 1 13 1 c 7 0 13 -1 17 -4 c 3 -3 5 -6 5 -11 c 0 -4 -1 -6 -2 -8 c -1 -2 -3 -4 -6 -6 c -3 -2 -8 -4 -14 -6 c -9 -3 -15 -7 -19 -11 c -4 -5 -6 -10 -6 -17 c 0 -7 3 -13 8 -17 c 6 -5 13 -7 22 -7 c 9 0 18 2 26 5 l -4 10 c -7 -3 -15 -5 -22 -5 c -6 0 -11 1 -14 4 c -3 2 -5 6 -5 10 c 0 3 1 6 2 8 c 1 2 3 4 6 6 c 3 2 7 3 13 6 c 10 3 17 7 21 11 c 3 4 5 9 5 16 z m 59 25 l -11 0 l 0 -85 l -30 0 l 0 -9 l 70 0 l 0 9 l -29 0 l 0 85 z m 54 0 l 0 -94 l 11 0 l 0 94 l -11 0 z m 76 0 l -11 0 l 0 -85 l -30 0 l 0 -9 l 70 0 l 0 9 l -29 0 l 0 85 z m 125 -94 l 0 60 c 0 11 -3 20 -10 26 c -6 6 -15 9 -26 9 c -12 0 -21 -3 -27 -9 c -6 -7 -9 -15 -9 -26 l 0 -60 l 11 0 l 0 61 c 0 8 2 14 6 18 c 5 4 11 6 19 6 c 8 0 14 -2 19 -6 c 4 -4 6 -10 6 -18 l 0 -61 l 11 0 z m 64 94 l -11 0 l 0 -85 l -30 0 l 0 -9 l 71 0 l 0 9 l -30 0 l 0 85 z m 144 0 l -65 0 l 0 -9 l 50 -76 l -48 0 l 0 -9 l 61 0 l 0 8 l -50 76 l 52 0 l 0 10 z m 87 0 l -11 -30 l -38 0 l -12 30 l -11 0 l 37 -95 l 10 0 l 37 95 l -12 0 z m -15 -40 l -11 -29 c -1 -4 -3 -9 -4 -14 c -1 4 -2 9 -4 14 l -11 29 l 30 0 z m 124 40 l -32 -84 l 0 0 c 0 7 0 15 0 24 l 0 60 l -10 0 l 0 -94 l 17 0 l 30 77 l 0 0 l 30 -77 l 16 0 l 0 94 l -10 0 l 0 -61 c 0 -7 0 -15 0 -23 l 0 0 l -32 84 l -9 0 z m 147 0 l -12 -30 l -38 0 l -11 30 l -11 0 l 37 -95 l 9 0 l 37 95 l -11 0 z m -15 -40 l -11 -29 c -2 -4 -3 -9 -5 -14 c -1 4 -2 9 -4 14 l -11 29 l 31 0 z m 69 40 l -11 0 l 0 -85 l -30 0 l 0 -9 l 71 0 l 0 9 l -30 0 l 0 85 z m 106 0 l -52 0 l 0 -94 l 52 0 l 0 9 l -41 0 l 0 31 l 39 0 l 0 9 l -39 0 l 0 35 l 41 0 l 0 10 z m 73 0 l -32 -84 l 0 0 c 0 7 1 15 1 24 l 0 60 l -10 0 l 0 -94 l 16 0 l 30 77 l 0 0 l 30 -77 l 17 0 l 0 94 l -11 0 l 0 -61 c 0 -7 0 -15 1 -23 l -1 0 l -32 84 l -9 0 z m 147 0 l -12 -30 l -38 0 l -11 30 l -11 0 l 37 -95 l 9 0 l 37 95 l -11 0 z m -15 -40 l -11 -29 c -2 -4 -3 -9 -5 -14 c 0 4 -2 9 -4 14 l -11 29 l 31 0 z m 69 40 l -11 0 l 0 -85 l -30 0 l 0 -9 l 71 0 l 0 9 l -30 0 l 0 85 z m 54 0 l 0 -94 l 11 0 l 0 94 l -11 0 z m 115 0 l -13 0 l -34 -46 l -10 9 l 0 37 l -11 0 l 0 -94 l 11 0 l 0 46 l 43 -46 l 13 0 l -38 40 l 39 54 z m 94 -94 l 0 60 c 0 11 -3 20 -9 26 c -7 6 -16 9 -27 9 c -11 0 -20 -3 -26 -9 c -6 -7 -10 -15 -10 -26 l 0 -60 l 11 0 l 0 61 c 0 8 3 14 7 18 c 4 4 10 6 19 6 c 8 0 14 -2 18 -6 c 4 -4 7 -10 7 -18 l 0 -61 l 10 0 z m 68 94 l 0 -94 l 11 0 l 0 94 l -11 0 z m 80 0 l 0 -94 l 11 0 l 0 94 l -11 0 z m 120 0 l -12 0 l -52 -79 l 0 0 c 0 9 1 17 1 25 l 0 54 l -10 0 l 0 -94 l 12 0 l 51 78 l 1 0 c 0 -1 -1 -5 -1 -11 c 0 -6 0 -11 0 -14 l 0 -53 l 10 0 l 0 94 z m 47 0 l -11 0 l 0 -94 l 53 0 l 0 9 l -42 0 l 0 35 l 39 0 l 0 9 l -39 0 l 0 41 z m 149 -48 c 0 15 -4 27 -11 36 c -8 9 -19 13 -32 13 c -14 0 -25 -4 -32 -13 c -8 -8 -11 -20 -11 -36 c 0 -15 3 -27 11 -35 c 7 -9 18 -13 32 -13 c 14 0 24 4 32 13 c 7 9 11 20 11 35 z m -75 0 c 0 13 3 23 8 29 c 6 7 14 10 24 10 c 10 0 18 -3 24 -10 c 5 -6 8 -16 8 -29 c 0 -12 -3 -22 -8 -28 c -6 -7 -14 -10 -24 -10 c -10 0 -18 3 -24 10 c -5 6 -8 16 -8 28 z m 117 8 l 0 40 l -11 0 l 0 -94 l 26 0 c 12 0 20 2 26 6 c 5 5 8 11 8 20 c 0 13 -6 21 -19 25 l 26 43 l -13 0 l -23 -40 l -20 0 z m 0 -9 l 15 0 c 8 0 14 -1 17 -5 c 4 -3 6 -7 6 -13 c 0 -7 -2 -11 -6 -14 c -4 -2 -9 -4 -18 -4 l -14 0 l 0 36 z m 123 49 l -32 -84 l -1 0 c 1 7 1 15 1 24 l 0 60 l -10 0 l 0 -94 l 16 0 l 30 77 l 1 0 l 30 -77 l 16 0 l 0 94 l -11 0 l 0 -61 c 0 -7 1 -15 1 -23 l 0 0 l -33 84 l -8 0 z m 146 0 l -11 -30 l -38 0 l -12 30 l -11 0 l 37 -95 l 10 0 l 37 95 l -12 0 z m -15 -40 l -11 -29 c -1 -4 -3 -9 -4 -14 c -1 4 -2 9 -4 14 l -11 29 l 30 0 z m 70 40 l -11 0 l 0 -85 l -30 0 l 0 -9 l 70 0 l 0 9 l -29 0 l 0 85 z m 54 0 l 0 -94 l 11 0 l 0 94 l -11 0 z m 115 0 l -13 0 l -34 -46 l -10 9 l 0 37 l -11 0 l 0 -94 l 11 0 l 0 46 l 42 -46 l 13 0 l -38 40 l 40 54 z m 94 -94 l 0 60 c 0 11 -3 20 -10 26 c -6 6 -15 9 -27 9 c -11 0 -20 -3 -26 -9 c -6 -7 -9 -15 -9 -26 l 0 -60 l 11 0 l 0 61 c 0 8 2 14 6 18 c 5 4 11 6 19 6 c 8 0 14 -2 18 -6 c 5 -4 7 -10 7 -18 l 0 -61 l 11 0 z" stroke-linecap="round" />
</g>
		<g transform="matrix(0.1 0 0 0.1 -31.51 4.88)"  >
<path style="stroke: none; stroke-width: 1; stroke-dasharray: none; stroke-linecap: butt; stroke-dashoffset: 0; stroke-linejoin: miter; stroke-miterlimit: 4; fill: rgb(214,214,214); fill-rule: nonzero; opacity: 1;"  transform=" translate(-1897.5, -320.5)" d="M 510 299 c 0 7 -3 13 -8 17 c -5 4 -12 6 -22 6 l -9 0 l 0 29 l -8 0 l 0 -74 l 19 0 c 18 0 28 7 28 22 z m -39 16 l 8 0 c 8 0 13 -1 17 -4 c 3 -2 5 -6 5 -12 c 0 -5 -2 -8 -5 -11 c -3 -2 -8 -3 -15 -3 l -10 0 l 0 30 z m 473 12 l 0 -7 l 25 0 l 0 7 l -25 0 z m -408 0 l 0 24 l -7 0 l 0 -59 l 16 0 c 8 0 13 1 16 4 c 4 3 6 7 6 13 c 0 8 -4 13 -12 16 l 16 26 l -8 0 l -15 -24 l -12 0 z m 0 -6 l 9 0 c 5 0 9 -1 11 -3 c 2 -2 3 -5 3 -9 c 0 -4 -1 -7 -3 -8 c -2 -2 -6 -3 -11 -3 l -9 0 l 0 23 z m 50 30 l 0 -59 l 7 0 l 0 59 l -7 0 z m 36 -24 l 0 24 l -7 0 l 0 -59 l 16 0 c 8 0 13 1 16 4 c 4 3 6 7 6 13 c 0 8 -4 13 -12 16 l 16 26 l -8 0 l -15 -24 l -12 0 z m 0 -6 l 9 0 c 5 0 9 -1 11 -3 c 2 -2 4 -5 4 -9 c 0 -4 -2 -7 -4 -8 c -2 -2 -6 -3 -11 -3 l -9 0 l 0 23 z m 102 1 c 0 9 -3 17 -7 22 c -5 6 -12 8 -20 8 c -9 0 -16 -2 -21 -8 c -5 -5 -7 -13 -7 -22 c 0 -10 2 -18 7 -23 c 5 -5 12 -8 21 -8 c 8 0 15 3 20 8 c 4 6 7 13 7 23 z m -48 0 c 0 8 2 14 6 18 c 3 4 8 6 15 6 c 6 0 11 -2 14 -6 c 4 -4 5 -10 5 -18 c 0 -8 -1 -14 -5 -19 c -3 -4 -8 -6 -14 -6 c -7 0 -12 2 -15 7 c -4 4 -6 10 -6 18 z m 114 -1 c 0 10 -2 18 -8 23 c -5 5 -13 7 -23 7 l -16 0 l 0 -59 l 18 0 c 9 0 16 3 22 8 c 5 5 7 12 7 21 z m -7 0 c 0 -7 -2 -13 -6 -17 c -4 -4 -10 -6 -17 -6 l -10 0 l 0 47 l 8 0 c 8 0 15 -2 19 -6 c 4 -4 6 -10 6 -18 z m 73 30 l -8 0 l -33 -49 l 0 0 c 0 5 1 11 1 16 l 0 33 l -7 0 l 0 -59 l 8 0 l 32 50 l 1 0 c 0 -1 0 -3 -1 -7 c 0 -4 0 -7 0 -9 l 0 -34 l 7 0 l 0 59 z m 73 -29 c 0 9 -2 17 -7 22 c -5 6 -11 8 -20 8 c -9 0 -16 -2 -20 -8 c -5 -5 -7 -13 -7 -22 c 0 -10 2 -18 7 -23 c 5 -5 11 -8 20 -8 c 9 0 15 3 20 8 c 5 6 7 13 7 23 z m -47 0 c 0 8 2 14 5 18 c 3 4 8 6 15 6 c 7 0 12 -2 15 -6 c 3 -4 5 -10 5 -18 c 0 -8 -2 -14 -5 -19 c -3 -4 -8 -6 -15 -6 c -7 0 -12 2 -15 7 c -3 4 -5 10 -5 18 z m 132 29 l -20 -52 l -1 0 c 1 4 1 9 1 15 l 0 37 l -7 0 l 0 -59 l 11 0 l 19 49 l 0 0 l 19 -49 l 10 0 l 0 59 l -7 0 l 0 -38 c 0 -4 1 -9 1 -14 l 0 0 l -21 52 l -5 0 z m 92 0 l -8 -18 l -24 0 l -7 18 l -7 0 l 24 -59 l 5 0 l 24 59 l -7 0 z m -10 -25 l -7 -18 c -1 -2 -2 -5 -3 -9 c 0 3 -1 6 -2 9 l -7 18 l 19 0 z m 43 25 l -7 0 l 0 -53 l -19 0 l 0 -6 l 45 0 l 0 6 l -19 0 l 0 53 z m 67 0 l -33 0 l 0 -59 l 33 0 l 0 6 l -26 0 l 0 19 l 24 0 l 0 6 l -24 0 l 0 22 l 26 0 l 0 6 z m 45 0 l -20 -52 l 0 0 c 0 4 0 9 0 15 l 0 37 l -6 0 l 0 -59 l 10 0 l 19 49 l 0 0 l 19 -49 l 11 0 l 0 59 l -7 0 l 0 -38 c 0 -4 0 -9 0 -14 l 0 0 l -20 52 l -6 0 z m 92 0 l -7 -18 l -24 0 l -8 18 l -7 0 l 24 -59 l 6 0 l 23 59 l -7 0 z m -10 -25 l -7 -18 c 0 -2 -1 -5 -2 -9 c -1 3 -2 6 -3 9 l -7 18 l 19 0 z m 43 25 l -6 0 l 0 -53 l -19 0 l 0 -6 l 44 0 l 0 6 l -19 0 l 0 53 z m 34 0 l 0 -59 l 7 0 l 0 59 l -7 0 z m 130 0 l -8 0 l -22 -28 l -6 5 l 0 23 l -7 0 l 0 -59 l 7 0 l 0 30 l 27 -30 l 8 0 l -24 26 l 25 33 z m 14 0 l 0 -59 l 7 0 l 0 59 l -7 0 z m 57 0 l -7 0 l 0 -59 l 33 0 l 0 6 l -26 0 l 0 22 l 25 0 l 0 6 l -25 0 l 0 25 z m 78 0 l -8 -18 l -24 0 l -7 18 l -7 0 l 24 -59 l 5 0 l 24 59 l -7 0 z m -10 -25 l -7 -18 c -1 -2 -2 -5 -3 -9 c 0 3 -1 6 -2 9 l -7 18 l 19 0 z m 74 25 l -9 0 l -21 -28 l -6 5 l 0 23 l -7 0 l 0 -59 l 7 0 l 0 30 l 26 -30 l 9 0 l -24 26 l 25 33 z m 58 -59 l 0 39 c 0 6 -2 12 -6 16 c -4 3 -10 5 -17 5 c -7 0 -12 -2 -16 -6 c -4 -3 -6 -9 -6 -16 l 0 -38 l 7 0 l 0 39 c 0 5 1 9 4 11 c 3 3 6 4 12 4 c 5 0 9 -1 11 -4 c 3 -2 4 -6 4 -11 l 0 -39 l 7 0 z m 22 59 l 0 -59 l 7 0 l 0 53 l 26 0 l 0 6 l -33 0 z m 65 0 l -7 0 l 0 -53 l -18 0 l 0 -6 l 44 0 l 0 6 l -19 0 l 0 53 z m 67 0 l -33 0 l 0 -59 l 33 0 l 0 6 l -26 0 l 0 19 l 24 0 l 0 6 l -24 0 l 0 22 l 26 0 l 0 6 z m 37 0 l -7 0 l 0 -53 l -19 0 l 0 -6 l 45 0 l 0 6 l -19 0 l 0 53 z m -538 -54 c -6 0 -11 3 -15 7 c -4 4 -6 10 -6 18 c 0 8 2 14 6 18 c 3 4 8 6 15 6 c 4 0 9 -1 14 -2 l 0 6 c -4 2 -9 2 -15 2 c -9 0 -15 -2 -20 -8 c -5 -5 -7 -13 -7 -22 c 0 -6 1 -12 3 -16 c 2 -5 6 -9 10 -11 c 4 -3 10 -4 15 -4 c 7 0 12 1 17 4 l -3 6 c -5 -3 -9 -4 -14 -4 z m -15 -23 l 5 0 c 3 2 6 4 9 8 c 4 -4 7 -6 9 -8 l 5 0 l 0 1 l -3 3 c -4 4 -6 7 -8 9 l -6 0 c -1 -1 -2 -2 -3 -4 c -2 -2 -4 -4 -8 -8 l 0 -1 z m 767 77 l -8 0 l -32 -49 l -1 0 c 1 5 1 11 1 16 l 0 33 l -6 0 l 0 -59 l 7 0 l 33 50 l 0 0 c 0 -1 0 -3 0 -7 c 0 -4 0 -7 0 -9 l 0 -34 l 6 0 l 0 59 z m 22 0 l 0 -59 l 7 0 l 0 59 l -7 0 z m 63 -59 l 7 0 l -21 59 l -7 0 l -21 -59 l 7 0 l 14 38 c 1 5 3 9 4 13 c 1 -4 2 -8 3 -13 l 14 -38 z m 54 59 l -33 0 l 0 -59 l 33 0 l 0 6 l -26 0 l 0 19 l 25 0 l 0 6 l -25 0 l 0 22 l 26 0 l 0 6 z m 26 -24 l 0 24 l -7 0 l 0 -59 l 17 0 c 7 0 12 1 16 4 c 3 3 5 7 5 13 c 0 8 -4 13 -12 16 l 16 26 l -8 0 l -14 -24 l -13 0 z m 0 -6 l 10 0 c 5 0 8 -1 10 -3 c 3 -2 4 -5 4 -9 c 0 -4 -1 -7 -4 -8 c -2 -2 -6 -3 -11 -3 l -9 0 l 0 23 z m 87 30 l -41 0 l 0 -5 l 31 -48 l -30 0 l 0 -6 l 39 0 l 0 5 l -32 48 l 33 0 l 0 6 z m 17 0 l 0 -59 l 7 0 l 0 59 l -7 0 z m 47 0 l -7 0 l 0 -53 l -19 0 l 0 -6 l 45 0 l 0 6 l -19 0 l 0 53 z m 67 0 l -34 0 l 0 -59 l 34 0 l 0 6 l -27 0 l 0 19 l 25 0 l 0 6 l -25 0 l 0 22 l 27 0 l 0 6 z m 37 0 l -7 0 l 0 -53 l -19 0 l 0 -6 l 45 0 l 0 6 l -19 0 l 0 53 z m 99 -59 l 0 39 c 0 6 -2 12 -6 16 c -4 3 -9 5 -17 5 c -7 0 -12 -2 -16 -6 c -4 -3 -6 -9 -6 -16 l 0 -38 l 7 0 l 0 39 c 0 5 1 9 4 11 c 3 3 7 4 12 4 c 5 0 9 -1 11 -4 c 3 -2 5 -6 5 -11 l 0 -39 l 6 0 z m 120 35 l 0 24 l -7 0 l 0 -59 l 16 0 c 7 0 13 1 16 4 c 4 3 6 7 6 13 c 0 8 -4 13 -12 16 l 16 26 l -8 0 l -15 -24 l -12 0 z m 0 -6 l 9 0 c 5 0 9 -1 11 -3 c 2 -2 3 -5 3 -9 c 0 -4 -1 -7 -3 -8 c -2 -2 -6 -3 -11 -3 l -9 0 l 0 23 z m 87 30 l -7 -18 l -24 0 l -7 18 l -7 0 l 23 -59 l 6 0 l 24 59 l -8 0 z m -9 -25 l -7 -18 c -1 -2 -2 -5 -3 -9 c 0 3 -1 6 -2 9 l -7 18 l 19 0 z m 55 -6 l 20 0 l 0 29 c -3 1 -6 2 -9 3 c -4 0 -7 0 -12 0 c -9 0 -16 -2 -21 -8 c -5 -5 -7 -13 -7 -22 c 0 -6 1 -12 3 -16 c 3 -5 6 -9 11 -11 c 5 -3 10 -4 17 -4 c 6 0 12 1 17 4 l -2 6 c -6 -3 -11 -4 -16 -4 c -7 0 -13 2 -17 7 c -4 4 -6 10 -6 18 c 0 8 2 14 6 18 c 4 4 10 6 17 6 c 4 0 8 0 12 -1 l 0 -18 l -13 0 l 0 -7 z m 85 -28 l 0 39 c 0 6 -2 12 -6 16 c -4 3 -10 5 -17 5 c -7 0 -13 -2 -17 -6 c -4 -3 -5 -9 -5 -16 l 0 -38 l 6 0 l 0 39 c 0 5 2 9 5 11 c 2 3 6 4 11 4 c 5 0 9 -1 12 -4 c 3 -2 4 -6 4 -11 l 0 -39 l 7 0 z m 13 75 c -3 0 -5 0 -6 -1 l 0 -6 c 2 1 4 1 6 1 c 2 0 5 -1 6 -2 c 1 -2 2 -4 2 -7 l 0 -60 l 7 0 l 0 59 c 0 5 -1 9 -4 12 c -3 3 -6 4 -11 4 z m 70 -16 l -34 0 l 0 -59 l 34 0 l 0 6 l -27 0 l 0 19 l 25 0 l 0 6 l -25 0 l 0 22 l 27 0 l 0 6 z m 52 -59 l 8 0 l -22 59 l -6 0 l -22 -59 l 8 0 l 13 38 c 2 5 3 9 4 13 c 1 -4 2 -8 4 -13 l 13 -38 z m 46 5 c -6 0 -11 3 -15 7 c -4 4 -6 10 -6 18 c 0 8 2 14 6 18 c 3 4 9 6 15 6 c 4 0 9 -1 14 -2 l 0 6 c -4 2 -9 2 -15 2 c -9 0 -15 -2 -20 -8 c -5 -5 -7 -13 -7 -22 c 0 -6 1 -12 3 -16 c 3 -5 6 -9 10 -11 c 4 -3 10 -4 15 -4 c 7 0 12 1 17 4 l -3 6 c -5 -3 -9 -4 -14 -4 z m 78 -5 l 0 39 c 0 6 -2 12 -6 16 c -4 3 -10 5 -17 5 c -7 0 -13 -2 -17 -6 c -4 -3 -6 -9 -6 -16 l 0 -38 l 7 0 l 0 39 c 0 5 2 9 4 11 c 3 3 7 4 12 4 c 5 0 9 -1 12 -4 c 3 -2 4 -6 4 -11 l 0 -39 l 7 0 z m -1287 47 l 1 2 c -1 3 -2 7 -4 11 c -2 5 -3 9 -5 13 l -6 0 c 0 -4 2 -8 3 -13 c 1 -5 1 -9 2 -13 l 9 0 z m 101 -62 l 0 48 c 0 9 -2 15 -7 20 c -5 5 -12 8 -21 8 c -9 0 -16 -3 -21 -8 c -5 -5 -8 -11 -8 -20 l 0 -48 l 9 0 l 0 49 c 0 6 2 11 5 14 c 4 3 9 5 15 5 c 6 0 11 -2 15 -5 c 3 -3 5 -8 5 -14 l 0 -49 l 8 0 z m 688 74 l -10 0 l -27 -36 l -8 7 l 0 29 l -9 0 l 0 -74 l 9 0 l 0 37 l 34 -37 l 10 0 l -30 32 l 31 42 z" stroke-linecap="round" />
</g>
		<g transform="matrix(0.1 0 0 0.1 4.94 17.83)"  >
<polygon style="stroke: none; stroke-width: 1; stroke-dasharray: none; stroke-linecap: butt; stroke-dashoffset: 0; stroke-linejoin: miter; stroke-miterlimit: 4; fill: rgb(255,255,255); fill-rule: evenodd; opacity: 1;"  points="-2077.5,-5 2077.5,-5 2077.5,5 -2077.5,5 " />
</g>
</g>
</g>
		<g transform="matrix(1 0 0 1 -26.33 22.76)" style=""  >
		<text xml:space="preserve" font-family="'Open Sans', sans-serif" font-size="17" font-style="normal" font-weight="normal" style="stroke: none; stroke-width: 1; stroke-dasharray: none; stroke-linecap: butt; stroke-dashoffset: 0; stroke-linejoin: miter; stroke-miterlimit: 4; fill: rgb(0,0,0); fill-rule: nonzero; opacity: 1; white-space: pre;" ><tspan x="-151.63" y="5.34" style="font-size: 17px; fill: rgb(247,245,245); ">Ana Radovanović</tspan></text>
</g>
</g>
</g>
</svg>